<svg id="visual" viewBox="0 0 900 600" width="900" height="600" xmlns="http://www.w3.org/2000/svg" xmlns:xlink="http://www.w3.org/1999/xlink" version="1.1"><rect x="0" y="0" width="900" height="600" fill="#000000"></rect><path d="M518 0L533 0L533 46L615 46L615 92L588 92L588 138L495 138L495 185L531 185L531 231L615 231L615 277L531 277L531 323L601 323L601 369L649 369L649 415L679 415L679 462L510 462L510 508L560 508L560 554L634 554L634 600L0 600L0 554L0 554L0 508L0 508L0 462L0 462L0 415L0 415L0 369L0 369L0 323L0 323L0 277L0 277L0 231L0 231L0 185L0 185L0 138L0 138L0 92L0 92L0 46L0 46L0 0L0 0Z" fill="#1f1f1f"></path><path d="M361 0L425 0L425 46L351 46L351 92L387 92L387 138L483 138L483 185L405 185L405 231L358 231L358 277L344 277L344 323L472 323L472 369L384 369L384 415L440 415L440 462L482 462L482 508L423 508L423 554L338 554L338 600L0 600L0 554L0 554L0 508L0 508L0 462L0 462L0 415L0 415L0 369L0 369L0 323L0 323L0 277L0 277L0 231L0 231L0 185L0 185L0 138L0 138L0 92L0 92L0 46L0 46L0 0L0 0Z" fill="#868686"></path><path d="M231 0L277 0L277 46L231 46L231 92L290 92L290 138L258 138L258 185L264 185L264 231L162 231L162 277L226 277L226 323L255 323L255 369L242 369L242 415L276 415L276 462L198 462L198 508L276 508L276 554L270 554L270 600L0 600L0 554L0 554L0 508L0 508L0 462L0 462L0 415L0 415L0 369L0 369L0 323L0 323L0 277L0 277L0 231L0 231L0 185L0 185L0 138L0 138L0 92L0 92L0 46L0 46L0 0L0 0Z" fill="#ffffff"></path></svg>