<svg id="visual" viewBox="0 0 675 900" width="675" height="900" xmlns="http://www.w3.org/2000/svg" xmlns:xlink="http://www.w3.org/1999/xlink" version="1.1"><rect x="0" y="0" width="675" height="900" fill="#000000"></rect><path d="M492 0L470 0L470 82L436 82L436 164L504 164L504 245L440 245L440 327L469 327L469 409L407 409L407 491L469 491L469 573L406 573L406 655L422 655L422 736L328 736L328 818L383 818L383 900L0 900L0 818L0 818L0 736L0 736L0 655L0 655L0 573L0 573L0 491L0 491L0 409L0 409L0 327L0 327L0 245L0 245L0 164L0 164L0 82L0 82L0 0L0 0Z" fill="#6a6a6a"></path><path d="M369 0L301 0L301 82L365 82L365 164L366 164L366 245L374 245L374 327L275 327L275 409L295 409L295 491L364 491L364 573L310 573L310 655L333 655L333 736L230 736L230 818L287 818L287 900L0 900L0 818L0 818L0 736L0 736L0 655L0 655L0 573L0 573L0 491L0 491L0 409L0 409L0 327L0 327L0 245L0 245L0 164L0 164L0 82L0 82L0 0L0 0Z" fill="#b2b2b2"></path><path d="M234 0L212 0L212 82L211 82L211 164L117 164L117 245L171 245L171 327L217 327L217 409L187 409L187 491L123 491L123 573L197 573L197 655L196 655L196 736L230 736L230 818L139 818L139 900L0 900L0 818L0 818L0 736L0 736L0 655L0 655L0 573L0 573L0 491L0 491L0 409L0 409L0 327L0 327L0 245L0 245L0 164L0 164L0 82L0 82L0 0L0 0Z" fill="#ffffff"></path></svg>