<svg id="visual" viewBox="0 0 960 540" width="960" height="540" xmlns="http://www.w3.org/2000/svg" xmlns:xlink="http://www.w3.org/1999/xlink" version="1.1"><rect x="0" y="0" width="960" height="540" fill="#000000"></rect><path d="M485 0L650 0L650 49L534 49L534 98L681 98L681 147L487 147L487 196L604 196L604 245L686 245L686 295L476 295L476 344L610 344L610 393L431 393L431 442L491 442L491 491L565 491L565 540L0 540L0 491L0 491L0 442L0 442L0 393L0 393L0 344L0 344L0 295L0 295L0 245L0 245L0 196L0 196L0 147L0 147L0 98L0 98L0 49L0 49L0 0L0 0Z" fill="#6a6a6a"></path><path d="M420 0L512 0L512 49L480 49L480 98L343 98L343 147L530 147L530 196L407 196L407 245L307 245L307 295L324 295L324 344L378 344L378 393L327 393L327 442L327 442L327 491L345 491L345 540L0 540L0 491L0 491L0 442L0 442L0 393L0 393L0 344L0 344L0 295L0 295L0 245L0 245L0 196L0 196L0 147L0 147L0 98L0 98L0 49L0 49L0 0L0 0Z" fill="#b2b2b2"></path><path d="M230 0L322 0L322 49L242 49L242 98L333 98L333 147L244 147L244 196L225 196L225 245L252 245L252 295L180 295L180 344L296 344L296 393L207 393L207 442L195 442L195 491L249 491L249 540L0 540L0 491L0 491L0 442L0 442L0 393L0 393L0 344L0 344L0 295L0 295L0 245L0 245L0 196L0 196L0 147L0 147L0 98L0 98L0 49L0 49L0 0L0 0Z" fill="#ffffff"></path></svg>